<svg width="676" height="676" viewBox="0 0 676 676" fill="none" xmlns="http://www.w3.org/2000/svg">
<g clip-path="url(#clip0_1_2)">
<circle cx="338" cy="338" r="338" fill="#928C6F"/>
<path d="M442.785 159.574C447.993 166.247 451.574 173.002 453.527 179.838C455.643 186.674 458.329 204.089 461.584 232.084C465.002 259.916 468.501 293.282 472.082 332.182C475.663 371.081 478.592 401.192 480.871 422.514C483.15 443.835 486.73 468.168 491.613 495.512C479.895 499.255 465.734 501.127 449.133 501.127C432.694 501.127 421.138 499.255 414.465 495.512C407.629 475.98 402.502 437.325 399.084 379.545L299.475 374.906C284.338 456.286 258.052 499.337 220.617 504.057C218.99 504.219 217.443 504.301 215.979 504.301C204.585 504.301 194.169 500.883 184.729 494.047C175.288 487.048 170.568 478.666 170.568 468.9C184.077 459.786 196.529 447.09 207.922 430.814C219.478 414.538 228.999 397.123 236.486 378.568C244.136 359.851 250.728 340.076 256.262 319.242C266.353 280.017 271.398 243.559 271.398 209.867C271.398 198.311 270.015 189.766 267.248 184.232C264.481 178.699 258.703 175.281 249.914 173.979C247.31 170.723 246.008 164.945 246.008 156.645C246.008 148.344 246.333 143.135 246.984 141.02C292.395 143.461 351.395 145.089 423.986 145.902C431.473 148.181 437.74 152.738 442.785 159.574ZM396.398 342.436C395.585 325.183 394.689 303.454 393.713 277.25C392.736 251.046 392.085 234.851 391.76 228.666C391.434 222.318 390.946 216.378 390.295 210.844C389.644 205.147 388.993 201.078 388.342 198.637C387.691 196.195 386.633 193.998 385.168 192.045C383.215 189.278 378.251 187.406 370.275 186.43C362.463 185.453 344.234 184.965 315.588 184.965C315.588 206.286 314.367 232.654 311.926 264.066C309.647 295.479 307.368 320.137 305.09 338.041H314.367C342.362 338.041 369.706 339.506 396.398 342.436Z" fill="#EDEBA0"/>
</g>
<defs>
<clipPath id="clip0_1_2">
<rect width="676" height="676" fill="white"/>
</clipPath>
</defs>
</svg>
